# xmcd
#
# Track frame offsets:
#	150
#	15666
#	38784
#
# Disc length: 724 seconds
#
# Revision: 0
# Processed by: cddbd v1.5.2PL0 Copyright (c) Steve Scherf et al.
# Submitted via: audiograbber 1.83.01
#
DISCID=1902d203
DTITLE=My Last Sorrow - Rock-well!
DYEAR=2006
DGENRE=Rock
TTITLE0=Rockwell
TTITLE1=Smashing Walls
TTITLE2=Hiding Behind
EXTD=Promo 2006\nwww.mylastsorrow.ch
EXTT0=
EXTT1=
EXTT2=
PLAYORDER=
